# xmcd
#
# Track frame offsets: 
#        150
#        22908
#        45530
#        68830
#        92900
#        115215
#        136543
#        163265
#        185393
#        205065
#        221760
#        248323
#        262690
#
# Disc length: 3965 seconds
#
# Revision: 9
# Processed by: cddbd v1.5.2PL0 Copyright (c) Steve Scherf et al.
# Submitted via: ExactAudioCopyFreeDBPlugin 1.0
#
DISCID=a50f7b0d
DTITLE=Jodeci - Diary Of A Mad Band
DYEAR=1993
DGENRE=R&B
TTITLE0=My Heart Belongs To U
TTITLE1=Cry For You
TTITLE2=Feenin'
TTITLE3=What About Us
TTITLE4=Ride and Slide
TTITLE5=Alone
TTITLE6=You Got It
TTITLE7=Won't Waste You
TTITLE8=In The Meanwhile
TTITLE9=Gimme All You Got
TTITLE10=Sweaty
TTITLE11=Jodecidal Hotline
TTITLE12=Success
EXTD=ID3G: 14
EXTT0=
EXTT1=
EXTT2=
EXTT3=
EXTT4=
EXTT5=
EXTT6=
EXTT7=
EXTT8=
EXTT9=
EXTT10=
EXTT11=
EXTT12=
PLAYORDER=
